<?xml version="1.0" encoding="utf-8"?>
<!-- Generator: Adobe Illustrator 27.5.0, SVG Export Plug-In . SVG Version: 6.00 Build 0)  -->
<svg version="1.1" id="Layer_3" xmlns="http://www.w3.org/2000/svg" xmlns:xlink="http://www.w3.org/1999/xlink" x="0px" y="0px"
	 viewBox="0 0 170 54" style="enable-background:new 0 0 170 54;" xml:space="preserve">
<style type="text/css">
	.st0{fill:#E2E2E0;}
	.st1{fill:#C1272D;}
</style>
<path class="st0" d="M133.6,42.4"/>
<path class="st0" d="M125.5,42.4"/>
<g>
	<g>
		<g>
			<g>
				<g>
					<path class="st1" d="M23.4,21c0,6.3-4,11.3-12.1,11.3s-12-4.6-12-11.3V-0.1h7.3v20.8c0,4.1,1.4,6,4.7,6s4.8-1.9,4.8-6V-0.1h7.3
						C23.4-0.1,23.4,21,23.4,21z"/>
				</g>
				<g>
					<path class="st1" d="M-0.7,35h24v5.3h-24C-0.7,40.3-0.7,35-0.7,35z"/>
				</g>
			</g>
			<g>
				<g>
					<path class="st1" d="M33.8,40.4H26V7.9h7.8V40.4z"/>
				</g>
				<g>
					<path class="st1" d="M26,0.1h7.8v5.3H26V0.1z"/>
				</g>
			</g>
		</g>
		<g>
			<g>
				<path class="st0" d="M127.2,20.1c0,12.6-6.7,20.2-17.8,20.2s-17.7-7.4-17.7-20.2C91.6,7.6,98.3,0,109.4,0S127.2,7.3,127.2,20.1z
					 M101.4,20.1c0,9.8,2.8,13.6,8,13.6c5.3,0,8-3.8,8-13.6s-2.7-13.5-8-13.5S101.4,10.4,101.4,20.1z"/>
			</g>
			<polygon class="st0" points="160.2,0.1 160.2,0 157.1,0 157.1,0 148.5,0 148.5,0.1 148.5,0.1 141.5,29.2 134.4,0 126,0.1 
				135.6,40.3 143.5,40.3 147.3,40.3 147.3,40.3 147.3,40.3 154.4,11.1 161.4,40.3 170,40.3 			"/>
			<g>
				<path class="st0" d="M89.1-0.1h-8.4v16.2c0,6.4,0.1,11.6,0.1,14.9L70.3-0.1h-3.4l0,0h-8.4v16.2c0,6.4,0.1,11.6,0.1,14.9
					L48.1-0.1H36.5v40.1h8.3V16.8l8,23.4h8.6l0,0H67V16.9l8,23.4h8.6l0,0H89L89.1-0.1L89.1-0.1z"/>
			</g>
		</g>
	</g>
	<g>
		<path class="st0" d="M43.1,46.3L42.5,47c-0.6-0.5-1.1-0.7-1.8-0.7c-0.8,0-1.4,0.4-1.4,1.1c0,0.7,0.3,1,1.7,1.4
			c1.2,0.4,2.3,0.9,2.3,2.4c0,1.4-1,2.3-2.8,2.3c-1.1,0-2-0.4-2.6-1l0.6-0.7c0.6,0.5,1.2,0.8,2,0.8c0.9,0,1.7-0.5,1.7-1.4
			c0-0.8-0.4-1.1-1.7-1.5c-1.5-0.5-2.3-1-2.3-2.2s1-2,2.4-2C41.8,45.4,42.5,45.7,43.1,46.3z"/>
		<path class="st0" d="M60.7,46.5h-2.2v6.9h-1.1v-6.9h-2.2v-0.9h5.6L60.7,46.5z"/>
		<path class="st0" d="M78.7,50.8c0,1.5-1,2.6-2.7,2.6c-1.8,0-2.7-1.1-2.7-2.6v-5.3h1.1v5.2c0,1.2,0.5,1.8,1.6,1.8s1.6-0.6,1.6-1.8
			v-5.2h1.1V50.8z"/>
		<path class="st0" d="M97.6,49.4c0,3.2-2,3.9-3.7,3.9H92v-7.8h1.6C95.7,45.6,97.6,46.2,97.6,49.4z M93.2,46.4v6.1h0.9
			c1.2,0,2.4-0.5,2.4-3.1s-1.3-3-2.5-3H93.2z"/>
		<path class="st0" d="M111.8,53.3h-1.1v-7.8h1.1V53.3z"/>
		<path class="st0" d="M131.4,49.4c0,2.6-1.3,4-3.3,4c-1.9,0-3.3-1.4-3.3-4s1.3-4,3.3-4C130,45.4,131.4,46.8,131.4,49.4z
			 M125.9,49.5c0,2.2,0.9,3.1,2.1,3.1c1.3,0,2.1-0.9,2.1-3.1c0-2.2-0.8-3.1-2.1-3.1C126.8,46.3,125.9,47.2,125.9,49.5z"/>
	</g>
</g>
</svg>
